# This file uses centimeters as units for non-parametric coordinates.

mtllib bonbon2.mtl
g default
v -4.080312 -0.092320 -0.309017
v -4.222352 -0.092320 -0.587786
v -4.443583 -0.092320 -0.809017
v -4.722352 -0.092320 -0.951057
v -5.031369 -0.092320 -1.000000
v -5.340386 -0.092320 -0.951057
v -5.619155 -0.092320 -0.809017
v -5.840386 -0.092320 -0.587785
v -5.982426 -0.092320 -0.309017
v -6.031369 -0.092320 0.000000
v -5.982426 -0.092320 0.309017
v -5.840386 -0.092320 0.587785
v -5.619154 -0.092320 0.809017
v -5.340386 -0.092320 0.951057
v -5.031369 -0.092320 1.000000
v -4.722352 -0.092320 0.951057
v -4.443584 -0.092320 0.809017
v -4.222352 -0.092320 0.587785
v -4.080313 -0.092320 0.309017
v -4.031369 -0.092320 0.000000
v -4.080312 0.594239 -0.309017
v -4.222352 0.594239 -0.587786
v -4.443583 0.594239 -0.809017
v -4.722352 0.594239 -0.951057
v -5.031369 0.594239 -1.000000
v -5.340386 0.594239 -0.951057
v -5.619155 0.594239 -0.809017
v -5.840386 0.594239 -0.587785
v -5.982426 0.594239 -0.309017
v -6.031369 0.594239 0.000000
v -5.982426 0.594239 0.309017
v -5.840386 0.594239 0.587785
v -5.619154 0.594239 0.809017
v -5.340386 0.594239 0.951057
v -5.031369 0.594239 1.000000
v -4.722352 0.656352 0.951057
v -4.443584 0.594239 0.809017
v -4.222352 0.594239 0.587785
v -4.080313 0.594239 0.309017
v -4.031369 0.594239 0.000000
v -5.031369 -0.056784 0.000000
v -5.031369 1.032213 0.000000
v -4.555840 0.854074 -0.154509
v -4.626860 0.854074 -0.293893
v -4.737476 0.854074 -0.404509
v -4.876860 0.854074 -0.475529
v -5.031369 0.854074 -0.500000
v -5.185878 0.854074 -0.475528
v -5.325262 0.854074 -0.404509
v -5.435878 0.854074 -0.293893
v -5.506897 0.854074 -0.154509
v -5.531369 0.854074 0.000000
v -5.506897 0.854074 0.154509
v -5.435878 0.854074 0.293893
v -5.325262 0.854074 0.404509
v -5.185878 0.854074 0.475528
v -5.031369 0.854074 0.500000
v -4.876860 0.916188 0.475528
v -4.737476 0.854074 0.404509
v -4.626861 0.854074 0.293893
v -4.555841 0.854074 0.154509
v -4.531369 0.854074 0.000000
vt 0.648603 0.107966
vt 0.626409 0.064408
vt 0.591842 0.029841
vt 0.548284 0.007647
vt 0.500000 -0.000000
vt 0.451716 0.007647
vt 0.408159 0.029841
vt 0.373591 0.064409
vt 0.351397 0.107966
vt 0.343750 0.156250
vt 0.351397 0.204534
vt 0.373591 0.248091
vt 0.408159 0.282659
vt 0.451716 0.304853
vt 0.500000 0.312500
vt 0.548284 0.304853
vt 0.591841 0.282659
vt 0.626409 0.248091
vt 0.648603 0.204534
vt 0.656250 0.156250
vt 0.375000 0.312500
vt 0.387500 0.312500
vt 0.400000 0.312500
vt 0.412500 0.312500
vt 0.425000 0.312500
vt 0.437500 0.312500
vt 0.450000 0.312500
vt 0.462500 0.312500
vt 0.475000 0.312500
vt 0.487500 0.312500
vt 0.500000 0.312500
vt 0.512500 0.312500
vt 0.525000 0.312500
vt 0.537500 0.312500
vt 0.550000 0.312500
vt 0.562500 0.312500
vt 0.575000 0.312500
vt 0.587500 0.312500
vt 0.600000 0.312500
vt 0.612500 0.312500
vt 0.625000 0.312500
vt 0.375000 0.687500
vt 0.387500 0.687500
vt 0.400000 0.687500
vt 0.412500 0.687500
vt 0.425000 0.687500
vt 0.437500 0.687500
vt 0.450000 0.687500
vt 0.462500 0.687500
vt 0.475000 0.687500
vt 0.487500 0.687500
vt 0.500000 0.687500
vt 0.512500 0.687500
vt 0.525000 0.687500
vt 0.537500 0.687500
vt 0.550000 0.687500
vt 0.562500 0.687500
vt 0.575000 0.687500
vt 0.587500 0.687500
vt 0.600000 0.687500
vt 0.612500 0.687500
vt 0.625000 0.687500
vt 0.648603 0.795466
vt 0.626409 0.751908
vt 0.591842 0.717341
vt 0.548284 0.695147
vt 0.500000 0.687500
vt 0.451716 0.695147
vt 0.408159 0.717341
vt 0.373591 0.751909
vt 0.351397 0.795466
vt 0.343750 0.843750
vt 0.351397 0.892034
vt 0.373591 0.935591
vt 0.408159 0.970159
vt 0.451716 0.992353
vt 0.500000 1.000000
vt 0.548284 0.992353
vt 0.591841 0.970159
vt 0.626409 0.935591
vt 0.648603 0.892034
vt 0.656250 0.843750
vt 0.500000 0.156250
vt 0.500000 0.843750
vt 0.574301 0.867892
vt 0.563204 0.889671
vt 0.545921 0.906954
vt 0.524142 0.918051
vt 0.500000 0.921875
vt 0.475858 0.918051
vt 0.454079 0.906954
vt 0.436796 0.889671
vt 0.425699 0.867892
vt 0.421875 0.843750
vt 0.425699 0.819608
vt 0.436796 0.797829
vt 0.454079 0.780546
vt 0.475858 0.769449
vt 0.500000 0.765625
vt 0.524142 0.769449
vt 0.545921 0.780545
vt 0.563205 0.797829
vt 0.574301 0.819608
vt 0.578125 0.843750
vn 0.951057 0.000000 -0.309016
vn 0.809017 0.000000 -0.587785
vn 0.809017 0.000000 -0.587785
vn 0.951057 0.000000 -0.309016
vn 0.587785 0.000000 -0.809017
vn 0.587785 0.000000 -0.809017
vn 0.309017 0.000000 -0.951057
vn 0.309017 0.000000 -0.951057
vn -0.000000 0.000000 -1.000000
vn -0.000000 0.000000 -1.000000
vn -0.309017 0.000000 -0.951056
vn -0.309017 0.000000 -0.951056
vn -0.587785 0.000000 -0.809017
vn -0.587785 0.000000 -0.809017
vn -0.809017 0.000000 -0.587785
vn -0.809017 0.000000 -0.587785
vn -0.951057 0.000000 -0.309017
vn -0.951057 0.000000 -0.309017
vn -1.000000 0.000000 0.000000
vn -1.000000 0.000000 0.000000
vn -0.951057 0.000000 0.309017
vn -0.951057 0.000000 0.309017
vn -0.809017 0.000000 0.587785
vn -0.809017 0.000000 0.587785
vn -0.587785 0.000000 0.809017
vn -0.587785 0.000000 0.809017
vn -0.309017 0.000000 0.951057
vn -0.309017 0.000000 0.951057
vn 0.003503 -0.000000 0.999994
vn 0.026333 -0.000000 0.999653
vn 0.309017 -0.000000 0.951057
vn 0.309017 -0.000000 0.951057
vn 0.584948 -0.000000 0.811071
vn 0.566277 -0.000000 0.824215
vn 0.809017 0.000000 0.587785
vn 0.809017 0.000000 0.587785
vn 0.951057 0.000000 0.309017
vn 0.951057 0.000000 0.309017
vn 1.000000 0.000000 0.000001
vn 1.000000 0.000000 0.000001
vn -0.028731 -0.999369 0.020874
vn -0.033775 -0.999369 0.010974
vn 0.000000 -1.000000 -0.000000
vn -0.020874 -0.999369 0.028731
vn -0.010974 -0.999369 0.033775
vn 0.000000 -0.999369 0.035513
vn 0.010974 -0.999369 0.033775
vn 0.020874 -0.999369 0.028731
vn 0.028731 -0.999369 0.020874
vn 0.033775 -0.999369 0.010974
vn 0.035514 -0.999369 0.000000
vn 0.033775 -0.999369 -0.010974
vn 0.028731 -0.999369 -0.020874
vn 0.020874 -0.999369 -0.028731
vn 0.010974 -0.999369 -0.033775
vn -0.000000 -0.999369 -0.035514
vn -0.010974 -0.999369 -0.033775
vn -0.020874 -0.999369 -0.028731
vn -0.028731 -0.999369 -0.020874
vn -0.033775 -0.999369 -0.010974
vn -0.035514 -0.999369 -0.000000
vn 0.413293 0.900642 -0.134287
vn 0.351568 0.900642 -0.255429
vn -0.000455 0.999999 -0.001399
vn 0.255429 0.900642 -0.351568
vn 0.134287 0.900642 -0.413293
vn -0.000000 0.900642 -0.434562
vn -0.134287 0.900642 -0.413293
vn -0.255429 0.900642 -0.351568
vn -0.351568 0.900642 -0.255429
vn -0.413293 0.900642 -0.134287
vn -0.434562 0.900642 0.000000
vn -0.413293 0.900642 0.134287
vn -0.351568 0.900642 0.255429
vn -0.255429 0.900642 0.351568
vn -0.134287 0.900642 0.413293
vn -0.126659 0.882580 0.452780
vn 0.109467 0.935154 0.336904
vn 0.368607 0.882580 0.291858
vn 0.351568 0.900642 0.255429
vn 0.413293 0.900642 0.134287
vn 0.434562 0.900642 0.000000
vn 0.461122 0.887337 0.000000
vn 0.438553 0.887337 -0.142494
vn 0.373056 0.887337 -0.271041
vn 0.271041 0.887337 -0.373056
vn 0.142495 0.887337 -0.438553
vn 0.000000 0.887337 -0.461122
vn -0.142495 0.887337 -0.438553
vn -0.271041 0.887337 -0.373055
vn -0.373056 0.887337 -0.271041
vn -0.438553 0.887337 -0.142495
vn -0.461122 0.887337 0.000000
vn -0.438553 0.887337 0.142495
vn -0.373056 0.887337 0.271041
vn -0.271041 0.887337 0.373056
vn -0.142495 0.887337 0.438553
vn -0.107207 0.876001 0.470244
vn 0.133327 0.902134 0.410339
vn 0.363134 0.876001 0.317421
vn 0.373056 0.887337 0.271041
vn 0.438553 0.887336 0.142495
s 1
g pasted__pCylinder1 Candy2
usemtl lambert11SG
f 1/21/1 2/22/2 22/43/3 21/42/4
f 2/22/2 3/23/5 23/44/6 22/43/3
f 3/23/5 4/24/7 24/45/8 23/44/6
f 4/24/7 5/25/9 25/46/10 24/45/8
f 5/25/9 6/26/11 26/47/12 25/46/10
f 6/26/11 7/27/13 27/48/14 26/47/12
f 7/27/13 8/28/15 28/49/16 27/48/14
f 8/28/15 9/29/17 29/50/18 28/49/16
f 9/29/17 10/30/19 30/51/20 29/50/18
f 10/30/19 11/31/21 31/52/22 30/51/20
f 11/31/21 12/32/23 32/53/24 31/52/22
f 12/32/23 13/33/25 33/54/26 32/53/24
f 13/33/25 14/34/27 34/55/28 33/54/26
f 14/34/27 15/35/29 35/56/30 34/55/28
f 15/35/29 16/36/31 36/57/32 35/56/30
f 16/36/31 17/37/33 37/58/34 36/57/32
f 17/37/33 18/38/35 38/59/36 37/58/34
f 18/38/35 19/39/37 39/60/38 38/59/36
f 19/39/37 20/40/39 40/61/40 39/60/38
f 20/40/39 1/41/1 21/62/4 40/61/40
s 2
f 2/2/41 1/1/42 41/83/43
f 3/3/44 2/2/41 41/83/43
f 4/4/45 3/3/44 41/83/43
f 5/5/46 4/4/45 41/83/43
f 6/6/47 5/5/46 41/83/43
f 7/7/48 6/6/47 41/83/43
f 8/8/49 7/7/48 41/83/43
f 9/9/50 8/8/49 41/83/43
f 10/10/51 9/9/50 41/83/43
f 11/11/52 10/10/51 41/83/43
f 12/12/53 11/11/52 41/83/43
f 13/13/54 12/12/53 41/83/43
f 14/14/55 13/13/54 41/83/43
f 15/15/56 14/14/55 41/83/43
f 16/16/57 15/15/56 41/83/43
f 17/17/58 16/16/57 41/83/43
f 18/18/59 17/17/58 41/83/43
f 19/19/60 18/18/59 41/83/43
f 20/20/61 19/19/60 41/83/43
f 1/1/42 20/20/61 41/83/43
s 3
f 43/85/62 44/86/63 42/84/64
f 44/86/63 45/87/65 42/84/64
f 45/87/65 46/88/66 42/84/64
f 46/88/66 47/89/67 42/84/64
f 47/89/67 48/90/68 42/84/64
f 48/90/68 49/91/69 42/84/64
f 49/91/69 50/92/70 42/84/64
f 50/92/70 51/93/71 42/84/64
f 51/93/71 52/94/72 42/84/64
f 52/94/72 53/95/73 42/84/64
f 53/95/73 54/96/74 42/84/64
f 54/96/74 55/97/75 42/84/64
f 55/97/75 56/98/76 42/84/64
f 56/98/76 57/99/77 42/84/64
f 57/99/77 58/100/78 42/84/64
f 58/100/78 59/101/79 42/84/64
f 59/101/79 60/102/80 42/84/64
f 60/102/80 61/103/81 42/84/64
f 61/103/81 62/104/82 42/84/64
f 62/104/82 43/85/62 42/84/64
f 40/82/83 21/81/84 43/85/62 62/104/82
f 21/81/84 22/80/85 44/86/63 43/85/62
f 22/80/85 23/79/86 45/87/65 44/86/63
f 23/79/86 24/78/87 46/88/66 45/87/65
f 24/78/87 25/77/88 47/89/67 46/88/66
f 25/77/88 26/76/89 48/90/68 47/89/67
f 26/76/89 27/75/90 49/91/69 48/90/68
f 27/75/90 28/74/91 50/92/70 49/91/69
f 28/74/91 29/73/92 51/93/71 50/92/70
f 29/73/92 30/72/93 52/94/72 51/93/71
f 30/72/93 31/71/94 53/95/73 52/94/72
f 31/71/94 32/70/95 54/96/74 53/95/73
f 32/70/95 33/69/96 55/97/75 54/96/74
f 33/69/96 34/68/97 56/98/76 55/97/75
f 34/68/97 35/67/98 57/99/77 56/98/76
f 35/67/98 36/66/99 58/100/78 57/99/77
f 36/66/99 37/65/100 59/101/79 58/100/78
f 37/65/100 38/64/101 60/102/80 59/101/79
f 38/64/101 39/63/102 61/103/81 60/102/80
f 39/63/102 40/82/83 62/104/82 61/103/81
